<?xml version="1.0" encoding="utf-8"?>
<svg viewBox="0 0 2048 2048" width="2048px" height="2048px" xmlns="http://www.w3.org/2000/svg" xmlns:bx="https://boxy-svg.com">
  <rect width="2048" height="2048" style="stroke: rgb(0, 0, 0); fill: rgba(255, 255, 255, 0); pointer-events: none;" bx:origin="0 0"/>
  <path style="stroke: rgb(0, 0, 0); stroke-width: 10px; fill: rgb(216, 216, 216); paint-order: stroke;" d="M 301.784 1270.772 L 1700 1270.772 L 1700 1723.929 L 301.784 1723.929 L 301.784 1270.772 Z"/>
  <path style="stroke: rgb(0, 0, 0); fill: rgba(255, 255, 255, 0); paint-order: stroke; stroke-width: 20px;" d="M 301.784 273.827 C 301.784 273.827 303.979 940.167 304.418 1273.339 C 304.618 1424.391 304.418 1726.495 304.418 1726.495 L 1700 1726.495 C 1700 1722.292 1700 1273.339 1700 1273.339 C 1700 1273.339 1700 726.216 1700 729.551 L 1327.845 276.393 L 301.784 273.827 Z"/>
  <path style="stroke: rgb(0, 0, 0); paint-order: stroke; fill: rgba(255, 255, 255, 0); stroke-width: 20px;" d="M 1440.94 273.827 L 1697.08 588.301 L 1697.08 273.827 L 1440.94 273.827 Z"/>
  <g id="svgg" transform="matrix(2.093372, 0, 0, 2.039205, 569.727173, 364.458801)" style="">
    <path id="path0" d="M160.000 1.800 L 160.000 3.600 149.300 3.602 C 135.338 3.605,134.812 3.783,134.802 8.500 L 134.800 9.600 131.787 9.600 C 129.479 9.600,128.721 9.740,128.545 10.200 C 128.418 10.530,128.072 10.800,127.776 10.800 C 126.001 10.800,123.600 13.435,123.600 15.384 C 123.600 15.723,123.330 16.000,123.000 16.000 C 122.670 16.000,122.400 16.173,122.400 16.385 C 122.400 16.596,121.693 16.960,120.829 17.192 C 119.167 17.640,117.200 19.570,117.200 20.754 C 117.200 21.135,116.936 21.796,116.613 22.224 C 116.235 22.723,116.021 23.963,116.013 25.700 L 116.000 28.400 114.700 28.402 C 109.226 28.412,109.605 25.254,109.602 70.900 L 109.600 109.600 70.900 109.602 C 25.254 109.605,28.412 109.226,28.402 114.700 L 28.400 116.000 25.587 116.000 C 23.557 116.000,22.716 116.154,22.562 116.555 C 22.445 116.860,21.809 117.218,21.148 117.350 C 19.597 117.661,17.658 119.610,17.345 121.174 C 17.210 121.848,16.873 122.400,16.597 122.400 C 16.320 122.400,16.009 122.722,15.906 123.116 C 15.799 123.524,15.006 124.068,14.065 124.379 C 12.741 124.815,12.247 125.264,11.587 126.626 C 11.134 127.563,10.502 128.429,10.182 128.552 C 9.745 128.719,9.600 129.515,9.600 131.741 L 9.600 134.708 7.441 134.978 C 3.724 135.442,3.820 135.104,3.672 148.241 L 3.544 159.600 1.772 159.600 L 0.000 159.600 0.000 178.200 L 0.000 196.800 1.720 196.800 C 3.303 196.800,3.477 196.695,3.918 195.477 C 4.598 193.596,6.499 191.923,8.285 191.633 L 9.800 191.386 10.276 188.193 C 10.538 186.437,11.119 179.315,11.567 172.367 C 12.016 165.419,12.663 158.403,13.005 156.776 C 13.604 153.928,13.850 153.398,15.586 151.200 C 16.020 150.650,16.908 148.101,17.559 145.535 C 18.984 139.920,19.553 138.742,21.383 137.610 C 23.080 136.562,24.212 135.044,24.685 133.185 C 24.979 132.031,25.434 131.593,27.417 130.559 C 28.940 129.764,30.243 128.701,31.041 127.603 C 32.429 125.692,33.706 124.836,35.200 124.813 C 36.833 124.788,43.720 122.818,44.749 122.081 C 45.272 121.707,46.143 121.105,46.684 120.745 C 48.797 119.338,54.012 119.151,89.054 119.226 C 112.900 119.278,123.641 119.165,125.155 118.850 C 126.654 118.537,137.913 118.400,162.179 118.400 L 197.050 118.400 197.966 117.161 C 199.615 114.931,200.913 115.017,162.271 114.800 L 126.582 114.600 123.893 113.276 C 122.365 112.523,120.771 111.385,120.202 110.638 L 119.200 109.324 119.200 81.989 C 119.200 64.131,119.356 53.441,119.649 51.155 C 120.069 47.879,120.327 47.198,122.081 44.749 C 122.801 43.744,124.797 36.817,124.799 35.319 C 124.801 33.776,125.688 32.412,127.570 31.059 C 128.799 30.175,129.777 28.998,130.547 27.474 C 131.532 25.523,131.919 25.136,133.303 24.722 C 134.816 24.268,135.827 23.441,138.520 20.454 C 139.646 19.204,141.018 18.687,147.700 16.995 C 149.417 16.560,151.013 15.826,152.085 14.977 C 154.236 13.276,157.713 12.649,169.600 11.819 C 194.245 10.099,200.579 9.941,213.800 10.721 C 242.724 12.426,245.868 12.808,248.095 14.888 C 248.977 15.712,250.393 16.335,252.969 17.030 C 260.222 18.988,260.428 19.087,263.000 21.807 C 264.465 23.357,265.867 24.456,266.600 24.628 C 268.242 25.014,268.711 25.452,269.810 27.620 C 270.331 28.649,271.622 30.215,272.679 31.102 C 274.738 32.829,274.590 32.473,276.845 41.152 C 277.413 43.341,278.094 44.937,278.807 45.752 C 280.040 47.161,280.608 49.976,280.958 56.401 C 281.211 61.037,282.073 64.916,283.496 67.817 L 284.567 70.000 287.263 70.000 C 289.406 70.000,290.046 70.144,290.378 70.700 C 290.671 71.191,290.766 65.295,290.698 50.942 C 290.585 27.358,290.880 29.030,286.751 28.563 L 284.400 28.297 284.400 25.536 C 284.400 23.489,284.249 22.717,283.818 22.552 C 283.498 22.429,282.858 21.545,282.394 20.588 C 281.767 19.291,281.100 18.629,279.776 17.988 C 278.799 17.516,278.000 16.875,278.000 16.564 C 278.000 16.242,277.605 16.000,277.080 16.000 C 276.390 16.000,275.948 15.565,275.316 14.263 C 274.765 13.130,274.051 12.352,273.259 12.024 C 272.530 11.722,271.996 11.178,271.923 10.661 C 271.811 9.878,271.524 9.790,268.744 9.684 L 265.688 9.568 265.420 7.424 C 264.958 3.720,265.315 3.820,251.959 3.673 L 240.400 3.545 240.400 1.773 L 240.400 0.000 200.200 0.000 L 160.000 0.000 160.000 1.800 M161.990 51.343 C 158.460 51.881,157.152 52.789,157.477 54.476 C 157.807 56.191,158.856 56.912,160.244 56.378 C 162.510 55.506,165.754 55.201,168.208 55.630 C 173.250 56.510,173.428 56.515,174.128 55.814 C 175.160 54.783,174.961 53.369,173.653 52.438 C 172.717 51.771,166.482 50.597,165.200 50.845 C 165.090 50.867,163.645 51.091,161.990 51.343 M152.467 58.296 C 151.990 58.889,151.594 59.560,151.587 59.787 C 151.580 60.014,151.414 61.443,151.218 62.962 C 150.545 68.184,151.638 73.979,153.424 74.665 C 155.851 75.596,156.631 73.894,155.803 69.475 C 155.149 65.984,155.434 61.805,156.457 59.893 C 157.467 58.006,153.862 56.563,152.467 58.296 M175.793 57.865 C 175.371 58.286,175.203 58.907,175.333 59.565 C 176.442 65.168,176.498 66.209,175.868 69.521 C 175.070 73.715,175.376 74.800,177.357 74.800 C 179.400 74.800,180.247 73.169,180.577 68.600 C 181.184 60.181,178.808 54.849,175.793 57.865 M290.337 73.900 C 290.098 74.722,289.833 74.800,287.298 74.800 L 284.521 74.800 283.862 76.478 C 283.044 78.561,284.076 85.262,285.200 85.162 C 285.530 85.132,285.890 85.152,286.000 85.206 C 286.110 85.260,286.740 85.351,287.400 85.409 C 288.060 85.467,288.730 85.534,288.890 85.557 C 289.535 85.653,290.400 88.072,290.400 89.780 L 290.400 91.600 287.400 91.600 C 285.750 91.600,284.400 91.752,284.400 91.938 C 284.400 92.124,283.645 93.429,282.723 94.838 L 281.047 97.400 281.129 129.100 C 281.218 163.144,281.201 163.458,279.178 165.623 C 277.955 166.933,277.040 169.094,276.394 172.200 C 275.300 177.460,274.386 179.599,272.809 180.594 C 271.382 181.495,270.181 183.055,268.803 185.800 C 268.409 186.583,267.415 187.391,265.940 188.127 C 264.698 188.746,262.469 190.301,260.988 191.581 L 258.296 193.909 251.747 195.162 C 248.145 195.852,244.404 196.524,243.433 196.658 C 242.235 196.822,241.609 197.121,241.487 197.587 C 241.041 199.293,239.963 199.340,195.200 199.622 C 169.289 199.785,151.190 200.058,149.000 200.318 C 141.006 201.267,138.961 201.982,137.589 204.308 C 137.132 205.084,136.114 205.941,135.107 206.400 C 132.512 207.581,130.226 209.010,129.052 210.184 C 127.342 211.894,124.952 215.315,124.668 216.459 C 124.515 217.075,123.828 217.859,123.024 218.333 C 121.432 219.272,120.229 221.417,119.847 224.000 C 119.041 229.450,118.087 232.566,116.903 233.625 C 115.155 235.186,115.132 235.429,114.845 255.200 C 114.544 275.919,114.473 276.377,111.080 279.670 L 109.450 281.252 80.425 281.081 C 49.625 280.899,47.915 280.796,46.000 279.001 C 44.993 278.057,42.816 277.288,36.216 275.546 C 34.245 275.026,32.412 274.330,32.144 274.000 C 31.875 273.670,31.194 272.835,30.630 272.145 C 30.066 271.455,28.839 270.530,27.902 270.089 C 25.837 269.117,25.050 268.263,24.426 266.320 C 24.165 265.506,23.287 264.278,22.476 263.592 C 21.664 262.906,20.608 261.991,20.129 261.558 C 19.289 260.800,18.468 258.474,16.984 252.647 C 16.534 250.880,15.860 249.413,15.103 248.551 C 13.075 246.240,12.454 242.861,11.586 229.404 C 11.085 221.648,10.611 220.274,8.300 219.887 C 4.172 219.198,3.179 217.586,3.999 212.904 C 4.901 207.745,4.944 204.151,4.145 200.507 L 3.420 197.200 1.710 197.200 L 0.000 197.200 0.000 219.000 L 0.000 240.800 1.800 240.800 L 3.600 240.800 3.602 251.300 C 3.605 265.039,3.793 265.588,8.500 265.598 L 9.600 265.600 9.600 268.580 C 9.600 270.841,9.748 271.643,10.213 271.903 C 10.550 272.092,11.135 272.859,11.513 273.608 C 11.960 274.494,12.863 275.308,14.100 275.939 C 15.145 276.472,16.000 277.154,16.000 277.454 C 16.000 277.754,16.247 278.000,16.550 278.000 C 16.852 278.000,17.210 278.552,17.345 279.226 C 17.658 280.790,19.597 282.739,21.148 283.050 C 21.809 283.182,22.445 283.540,22.562 283.845 C 22.715 284.244,23.550 284.400,25.536 284.400 L 28.297 284.400 28.563 286.751 C 29.043 290.997,24.721 290.584,70.032 290.709 L 109.581 290.819 109.691 330.368 C 109.816 375.679,109.403 371.357,113.649 371.837 L 116.000 372.103 116.000 374.864 C 116.000 376.850,116.156 377.685,116.555 377.838 C 116.860 377.955,117.218 378.591,117.350 379.252 C 117.661 380.803,119.610 382.742,121.174 383.055 C 121.848 383.190,122.400 383.527,122.400 383.803 C 122.400 384.080,122.722 384.391,123.116 384.494 C 123.524 384.601,124.068 385.394,124.379 386.335 C 124.815 387.659,125.264 388.153,126.626 388.813 C 127.563 389.266,128.429 389.898,128.552 390.218 C 128.719 390.655,129.515 390.800,131.741 390.800 L 134.708 390.800 134.978 392.959 C 135.442 396.676,135.104 396.580,148.241 396.728 L 159.600 396.856 159.600 398.428 L 159.600 400.000 200.200 400.000 L 240.800 400.000 240.800 398.428 L 240.800 396.856 252.159 396.728 C 265.289 396.580,264.958 396.674,265.420 392.976 L 265.688 390.832 268.744 390.716 C 271.524 390.610,271.811 390.522,271.923 389.739 C 271.996 389.222,272.530 388.678,273.259 388.376 C 274.051 388.048,274.765 387.270,275.316 386.137 C 275.948 384.835,276.390 384.400,277.080 384.400 C 277.605 384.400,278.000 384.158,278.000 383.836 C 278.000 383.525,278.799 382.884,279.776 382.412 C 281.100 381.771,281.767 381.109,282.394 379.812 C 282.858 378.855,283.498 377.971,283.818 377.848 C 284.250 377.683,284.400 376.910,284.400 374.859 L 284.400 372.092 286.555 371.823 C 291.054 371.261,290.779 374.036,290.790 329.100 L 290.800 290.800 309.414 290.800 C 327.693 290.800,328.021 290.786,327.614 290.026 C 327.386 289.601,327.200 288.211,327.200 286.937 C 327.200 284.624,327.197 284.618,324.772 282.311 C 322.046 279.717,322.625 279.711,318.200 282.382 C 315.846 283.803,315.739 283.826,312.600 283.609 L 309.400 283.387 306.671 280.744 C 303.322 277.500,303.865 277.600,289.608 277.600 C 276.380 277.600,273.104 277.980,270.348 279.835 C 266.401 282.491,264.600 282.406,260.552 279.373 C 258.467 277.812,254.580 277.600,227.969 277.600 L 203.316 277.600 201.308 279.723 C 197.300 283.961,197.294 285.081,201.269 286.792 C 204.148 288.030,257.443 287.873,261.200 286.615 C 266.384 284.879,273.025 286.435,277.053 290.329 C 278.046 291.289,277.836 345.403,276.819 350.832 C 274.416 363.644,273.984 364.955,271.223 367.800 C 270.155 368.900,268.908 370.548,268.452 371.462 C 267.523 373.322,265.878 374.800,264.736 374.800 C 264.320 374.800,262.814 375.885,261.389 377.210 C 258.447 379.947,258.221 380.055,252.178 381.599 C 249.747 382.221,245.787 383.387,243.378 384.189 C 226.827 389.706,173.647 389.607,156.533 384.027 C 153.906 383.171,149.966 382.017,147.778 381.464 C 142.207 380.055,141.822 379.869,139.311 377.398 C 137.939 376.048,136.511 375.045,135.618 374.805 C 134.012 374.372,132.250 372.727,131.799 371.240 C 131.639 370.711,130.463 369.247,129.186 367.986 C 126.805 365.634,124.800 361.105,124.800 358.077 C 124.800 357.482,124.611 356.366,124.381 355.597 C 122.819 350.389,122.801 349.680,122.801 294.545 L 122.800 241.289 123.797 235.945 C 124.346 233.005,124.972 229.627,125.189 228.438 C 125.723 225.513,126.860 223.466,129.543 220.596 C 130.784 219.268,132.138 217.431,132.550 216.514 C 133.174 215.129,133.769 214.600,136.064 213.394 C 137.584 212.596,139.586 211.201,140.514 210.295 C 145.221 205.698,147.473 205.504,200.000 205.183 C 243.925 204.915,246.074 204.837,248.781 203.419 C 249.541 203.021,252.241 202.167,254.781 201.521 C 260.357 200.104,262.212 199.319,264.249 197.519 C 265.528 196.388,269.396 193.644,272.311 191.800 C 273.170 191.256,274.772 189.480,274.787 189.054 C 274.804 188.599,277.362 185.067,279.291 182.834 C 280.347 181.612,281.068 180.195,281.632 178.234 C 282.080 176.675,283.158 173.960,284.028 172.200 C 287.094 165.996,286.925 167.392,287.089 147.000 C 287.252 126.797,287.270 126.639,289.708 124.100 L 290.957 122.800 319.378 122.807 C 348.195 122.815,351.624 122.964,355.334 124.375 C 355.949 124.609,357.061 124.800,357.805 124.800 C 360.966 124.800,365.546 126.726,367.737 128.977 C 368.872 130.142,370.548 131.474,371.462 131.937 C 373.353 132.893,374.800 134.529,374.800 135.710 C 374.800 136.165,375.894 137.589,377.330 139.004 C 380.084 141.718,379.982 141.470,382.425 151.400 C 382.913 153.380,383.822 156.396,384.446 158.102 C 387.467 166.357,388.876 193.318,387.661 219.600 C 387.054 232.721,386.401 236.849,383.674 244.800 C 383.033 246.670,382.281 249.190,382.004 250.400 C 380.423 257.304,379.942 258.435,377.514 260.955 C 376.098 262.424,375.032 263.937,374.797 264.812 C 374.363 266.424,373.277 267.569,371.200 268.604 C 370.430 268.988,368.799 270.249,367.576 271.407 C 365.120 273.731,364.257 274.066,356.400 275.739 C 349.665 277.173,346.815 277.600,343.954 277.602 C 339.895 277.605,335.232 279.593,330.900 283.167 C 329.253 284.525,329.200 284.643,329.200 286.911 C 329.200 288.199,329.014 289.601,328.786 290.026 C 328.379 290.786,328.715 290.800,347.886 290.790 C 371.897 290.779,371.282 290.888,371.823 286.555 L 372.092 284.400 374.859 284.400 C 376.910 284.400,377.683 284.250,377.848 283.818 C 377.971 283.498,378.855 282.858,379.812 282.394 C 381.109 281.767,381.771 281.100,382.412 279.776 C 382.884 278.799,383.525 278.000,383.836 278.000 C 384.158 278.000,384.400 277.605,384.400 277.080 C 384.400 276.390,384.835 275.948,386.137 275.316 C 387.270 274.765,388.048 274.051,388.376 273.259 C 388.678 272.530,389.222 271.996,389.739 271.923 C 390.523 271.811,390.610 271.525,390.716 268.735 L 390.832 265.671 392.785 265.402 C 396.644 264.871,396.778 264.388,396.790 250.900 L 396.800 240.800 398.400 240.800 L 400.000 240.800 400.000 200.800 L 400.000 160.800 398.427 160.800 L 396.853 160.800 396.727 148.841 C 396.580 135.026,396.694 135.444,392.959 134.978 L 390.800 134.708 390.800 131.741 C 390.800 129.515,390.655 128.719,390.218 128.552 C 389.898 128.429,389.266 127.563,388.813 126.626 C 388.153 125.264,387.659 124.815,386.335 124.379 C 385.394 124.068,384.601 123.524,384.494 123.116 C 384.391 122.722,384.074 122.400,383.789 122.400 C 383.504 122.400,382.884 121.601,382.412 120.624 C 381.771 119.300,381.109 118.633,379.812 118.006 C 378.855 117.542,377.971 116.902,377.848 116.582 C 377.683 116.151,376.911 116.000,374.864 116.000 L 372.103 116.000 371.837 113.649 C 371.357 109.403,375.680 109.816,330.362 109.691 L 290.808 109.581 290.704 91.291 C 290.647 81.231,290.482 73.405,290.337 73.900 M157.863 75.794 C 154.864 78.793,160.083 81.167,168.400 80.588 C 173.178 80.255,174.800 79.437,174.800 77.357 C 174.800 75.385,173.703 75.066,169.727 75.883 C 166.662 76.512,164.135 76.383,159.563 75.362 C 158.881 75.210,158.299 75.358,157.863 75.794 M231.019 318.045 C 224.189 319.040,219.276 323.898,218.162 330.756 C 217.121 337.158,218.861 343.796,222.033 345.528 C 222.565 345.818,223.470 346.731,224.045 347.556 C 226.461 351.023,237.654 352.360,242.000 349.701 C 243.668 348.680,249.971 342.059,250.190 341.099 C 251.937 333.411,250.850 326.347,247.566 324.045 C 246.746 323.470,245.779 322.507,245.418 321.906 C 243.587 318.854,237.206 317.143,231.019 318.045 M238.600 324.548 C 242.379 325.231,243.023 325.651,243.746 327.896 C 247.901 340.805,240.803 347.901,227.892 343.745 C 225.540 342.987,225.065 342.149,224.410 337.600 C 223.840 333.644,224.595 326.834,225.728 325.701 C 227.029 324.400,234.218 323.756,238.600 324.548 " stroke="none" fill="#29250f" fill-rule="evenodd"/>
    <path id="path1" d="M290.039 124.307 C 288.124 126.485,288.090 126.819,287.890 145.200 C 287.674 165.198,287.556 166.216,284.826 171.800 C 283.751 174.000,282.656 176.607,282.395 177.593 C 281.770 179.946,280.305 182.803,279.217 183.785 C 278.227 184.681,275.054 189.077,274.704 190.039 C 274.422 190.815,270.170 194.063,267.336 195.667 C 266.201 196.310,265.175 197.089,265.056 197.399 C 264.589 198.615,261.439 200.123,256.246 201.615 C 253.258 202.474,250.087 203.548,249.199 204.000 C 246.359 205.449,242.708 205.575,203.000 205.591 C 181.273 205.600,162.176 205.779,159.600 205.998 C 147.065 207.064,143.623 207.910,140.903 210.592 C 139.902 211.578,137.900 212.984,136.453 213.717 C 134.223 214.846,133.670 215.346,132.816 217.004 C 132.262 218.080,130.869 219.976,129.720 221.217 C 127.096 224.051,125.811 226.624,125.233 230.200 C 124.985 231.740,124.479 234.710,124.110 236.800 C 123.104 242.497,122.835 343.480,123.809 349.729 C 124.158 351.968,124.604 354.974,124.799 356.408 C 125.528 361.755,126.981 365.306,129.386 367.622 C 130.581 368.773,131.829 370.389,132.158 371.212 C 132.871 372.993,134.354 374.249,136.392 374.798 C 137.350 375.056,138.518 375.891,139.673 377.145 C 141.671 379.315,144.167 380.455,148.968 381.392 C 151.827 381.951,156.728 383.371,159.950 384.576 C 172.213 389.162,232.374 388.723,242.000 383.977 C 242.770 383.598,245.470 382.806,248.000 382.218 C 257.323 380.051,258.308 379.658,260.830 377.106 C 262.082 375.838,263.443 374.799,263.853 374.799 C 265.312 374.796,267.167 373.238,268.241 371.114 C 268.829 369.951,270.168 368.168,271.216 367.150 C 275.921 362.583,276.600 356.660,276.600 320.200 L 276.600 290.600 274.677 289.315 L 272.754 288.030 238.077 288.014 C 199.957 287.996,201.301 288.078,198.299 285.572 L 197.033 284.515 198.406 282.249 C 199.161 281.003,200.379 279.402,201.111 278.692 L 202.444 277.400 233.722 277.117 C 250.925 276.962,265.360 276.827,265.800 276.819 C 266.240 276.810,274.970 276.906,285.200 277.031 L 303.800 277.260 306.641 280.178 L 309.482 283.095 312.547 283.382 L 315.612 283.669 318.784 281.635 C 322.653 279.153,322.068 279.111,324.865 282.069 C 327.190 284.527,327.200 284.549,327.200 286.993 C 327.200 289.920,327.992 291.510,328.747 290.098 C 328.996 289.633,329.200 288.177,329.200 286.862 L 329.200 284.471 331.795 282.093 C 335.619 278.589,338.890 277.323,345.397 276.831 C 356.679 275.977,364.640 273.941,367.000 271.306 C 367.880 270.324,369.641 268.993,370.914 268.348 C 373.238 267.169,374.795 265.366,374.799 263.848 C 374.799 263.435,375.843 262.057,377.118 260.786 C 379.673 258.239,379.998 257.427,382.221 248.038 C 382.815 245.528,383.720 242.558,384.231 241.438 C 386.842 235.712,388.250 214.216,387.581 190.301 C 387.034 170.780,386.310 164.617,383.808 158.200 C 383.293 156.880,382.470 153.910,381.977 151.600 C 380.189 143.205,379.827 142.301,377.191 139.623 C 375.876 138.287,374.799 136.881,374.799 136.497 C 374.795 135.048,373.223 133.259,370.834 131.986 C 369.500 131.275,367.787 129.935,367.027 129.007 C 365.431 127.059,361.355 125.463,356.274 124.797 C 354.694 124.589,351.780 124.148,349.800 123.817 C 346.835 123.320,341.332 123.214,318.600 123.214 L 291.000 123.214 290.039 124.307 M356.200 139.325 C 358.210 140.155,359.077 140.909,361.524 143.955 C 362.253 144.862,363.553 146.008,364.413 146.502 C 367.386 148.208,369.108 154.467,369.227 164.000 C 369.294 169.360,369.502 170.104,371.059 170.568 C 372.215 170.912,372.336 171.136,372.981 174.136 C 375.343 185.129,374.643 228.566,372.089 229.506 C 369.551 230.440,369.300 231.063,369.227 236.600 C 369.099 246.371,367.371 252.228,363.999 254.324 C 362.941 254.982,361.383 256.447,360.538 257.580 C 356.837 262.537,357.608 262.456,311.107 262.752 L 272.015 263.000 270.789 264.226 C 269.750 265.265,269.478 265.979,269.004 268.906 C 268.127 274.326,266.490 276.151,264.389 274.051 L 263.200 272.862 263.202 267.131 C 263.203 263.979,263.382 260.770,263.598 260.000 C 264.356 257.306,261.681 257.469,309.400 257.201 C 358.013 256.927,355.455 257.111,357.045 253.762 C 357.768 252.238,359.485 250.400,360.185 250.400 C 361.727 250.400,362.401 248.595,363.408 241.769 C 365.037 230.717,365.494 228.941,366.849 228.380 C 368.818 227.564,368.871 226.800,368.895 199.140 C 368.918 171.245,368.947 171.600,366.646 171.600 C 365.570 171.600,365.099 169.715,363.594 159.400 C 362.434 151.446,362.268 150.953,360.433 150.017 C 359.090 149.332,356.400 146.083,356.400 145.145 C 356.400 144.517,354.811 144.003,350.944 143.381 C 346.391 142.648,344.062 141.528,344.867 140.458 C 346.711 138.007,346.622 138.042,350.543 138.279 C 352.880 138.420,354.922 138.798,356.200 139.325 M268.306 306.451 C 268.417 322.995,268.342 323.822,266.636 324.940 C 265.856 325.451,265.656 325.441,264.923 324.859 C 263.244 323.525,263.200 323.058,263.200 306.655 L 263.200 290.858 264.491 289.848 L 265.782 288.838 266.991 289.770 L 268.200 290.702 268.306 306.451 M238.200 317.741 C 242.124 318.384,243.305 318.977,245.604 321.461 C 246.592 322.527,247.871 323.767,248.446 324.215 C 251.458 326.562,252.499 337.801,250.112 342.200 C 249.265 343.760,243.747 349.274,242.200 350.106 C 237.718 352.516,226.586 351.488,224.215 348.446 C 223.767 347.871,222.526 346.591,221.458 345.602 C 218.990 343.316,218.248 341.787,217.655 337.767 C 216.137 327.462,221.323 319.183,230.162 317.799 C 234.422 317.132,234.484 317.131,238.200 317.741 M268.400 343.909 C 268.400 347.778,266.982 350.154,265.231 349.217 C 262.698 347.861,262.226 341.643,264.480 339.318 L 265.759 337.998 267.080 339.277 C 268.367 340.525,268.400 340.642,268.400 343.909 " stroke="none" fill="#f3c426" fill-rule="evenodd"/>
    <path id="path2" d="M176.200 14.256 C 171.375 14.624,165.800 15.699,164.853 16.444 C 163.307 17.661,157.892 19.096,151.600 19.958 C 144.726 20.900,143.348 21.414,140.762 24.000 C 139.416 25.346,138.064 26.225,136.420 26.825 C 134.122 27.663,134.007 27.772,133.352 29.748 C 132.883 31.162,131.958 32.546,130.377 34.200 C 125.566 39.234,125.546 39.407,125.325 78.276 L 125.148 109.552 126.474 110.276 C 127.717 110.955,130.031 111.012,163.600 111.200 L 199.400 111.400 201.400 112.320 C 206.604 114.715,206.702 117.154,201.820 122.738 C 199.690 125.174,205.918 124.977,122.800 125.237 C 33.383 125.517,39.666 125.152,34.200 130.377 C 32.546 131.958,31.162 132.883,29.748 133.352 C 27.772 134.007,27.663 134.122,26.825 136.420 C 26.225 138.064,25.346 139.416,24.000 140.762 C 21.458 143.304,20.928 144.676,19.977 151.187 C 19.083 157.310,18.418 159.684,16.751 162.703 C 15.135 165.630,14.475 170.300,14.074 181.640 C 13.651 193.596,13.359 194.245,7.800 195.554 C 2.847 196.722,2.775 197.167,7.177 199.396 C 13.676 202.686,13.849 210.240,7.498 213.448 C 6.344 214.031,4.996 214.824,4.502 215.210 L 3.604 215.912 4.902 216.136 C 5.616 216.259,7.100 216.481,8.200 216.630 C 12.744 217.244,13.790 218.872,14.388 226.256 C 14.955 233.268,15.458 235.755,16.792 238.155 C 18.436 241.112,19.147 243.531,19.846 248.554 C 20.568 253.737,21.813 257.953,22.726 258.304 C 24.033 258.805,25.494 260.988,27.591 265.573 C 27.879 266.203,28.171 266.376,30.751 267.443 C 31.715 267.842,33.476 269.103,34.666 270.246 C 39.320 274.718,39.957 274.784,78.614 274.793 L 109.828 274.800 110.514 273.638 C 111.132 272.592,111.201 270.830,111.213 255.938 C 111.232 232.663,111.730 228.484,114.835 225.524 C 116.093 224.325,116.538 223.471,117.207 220.975 C 118.297 216.905,118.870 215.883,121.597 213.139 C 122.862 211.866,124.179 210.231,124.523 209.506 C 125.310 207.848,126.353 206.910,129.502 205.032 C 130.878 204.211,132.186 203.200,132.408 202.785 C 133.204 201.297,136.250 199.675,140.612 198.417 C 143.475 197.591,145.357 196.811,146.027 196.171 C 149.356 192.993,152.336 192.815,202.400 192.809 C 236.354 192.805,244.803 192.696,249.375 192.206 L 254.949 191.608 256.596 189.738 C 257.715 188.465,259.386 187.276,261.821 186.018 C 265.091 184.329,265.503 183.981,266.600 181.985 C 268.620 178.307,269.934 176.472,271.234 175.515 C 274.596 173.041,274.800 170.441,274.800 130.064 C 274.800 97.639,274.813 97.073,275.611 95.782 C 276.468 94.395,279.397 92.308,281.529 91.565 C 282.228 91.321,282.800 91.033,282.800 90.924 C 282.800 89.932,280.262 84.018,278.733 81.447 L 276.815 78.223 278.071 76.927 C 278.762 76.214,279.883 75.360,280.563 75.028 C 281.244 74.696,282.340 74.061,283.000 73.615 C 283.948 72.976,284.852 72.805,287.300 72.803 C 291.765 72.799,291.627 71.837,287.141 71.702 C 283.644 71.596,282.134 70.996,278.524 68.278 C 275.546 66.036,274.807 63.179,274.787 53.827 C 274.764 42.536,273.790 38.588,270.042 34.581 C 268.424 32.852,267.469 31.412,266.997 29.991 C 266.415 28.238,266.087 27.835,264.855 27.354 C 261.557 26.067,258.000 23.555,258.000 22.513 C 258.000 21.814,254.032 20.716,248.811 19.970 C 242.871 19.121,238.600 17.932,236.587 16.566 C 233.620 14.552,229.986 14.296,203.000 14.195 C 189.360 14.144,177.300 14.172,176.200 14.256 M249.949 34.413 C 250.087 34.421,249.775 34.781,249.256 35.213 C 248.069 36.202,246.755 36.216,245.567 35.253 L 244.645 34.507 245.822 33.890 C 246.851 33.351,247.171 33.344,248.349 33.836 C 249.091 34.146,249.811 34.406,249.949 34.413 M254.412 41.360 C 253.327 41.844,252.628 41.174,252.998 40.006 L 253.276 39.132 254.263 40.059 C 255.246 40.982,255.246 40.988,254.412 41.360 M260.790 105.892 C 260.801 169.012,260.790 169.362,258.929 167.501 C 258.156 166.728,258.127 45.411,258.900 44.480 C 260.761 42.237,260.778 42.809,260.790 105.892 M170.414 48.202 C 175.975 49.037,181.635 53.274,182.757 57.441 C 186.736 72.217,182.061 81.722,169.786 83.813 C 155.394 86.264,146.062 77.182,148.013 62.619 C 148.726 57.292,149.201 56.302,152.737 52.766 C 156.205 49.298,156.849 48.951,161.200 48.200 C 165.226 47.505,165.774 47.505,170.414 48.202 M163.404 58.240 C 157.670 60.339,155.981 67.564,160.227 71.838 C 165.047 76.689,171.871 74.611,174.206 67.581 C 175.996 62.192,169.041 56.178,163.404 58.240 M167.881 58.918 C 169.515 59.826,172.997 63.436,173.456 64.699 C 174.365 67.194,170.912 72.092,167.362 73.343 C 161.868 75.280,155.523 65.144,160.420 62.252 C 161.053 61.878,161.879 61.052,162.254 60.417 C 163.376 58.516,165.933 57.835,167.881 58.918 M254.537 171.531 C 255.157 172.215,255.140 172.317,254.271 173.133 L 253.344 174.004 252.457 173.061 L 251.571 172.117 252.485 171.480 C 253.663 170.658,253.750 170.661,254.537 171.531 M247.811 177.468 C 249.730 179.388,249.801 179.384,199.800 179.600 C 152.726 179.803,147.325 179.723,145.597 178.798 L 144.630 178.281 145.564 177.935 C 149.050 176.645,246.543 176.200,247.811 177.468 M136.917 183.861 L 138.195 184.521 136.597 185.091 C 134.880 185.704,129.416 185.631,128.376 184.982 C 126.792 183.993,135.072 182.906,136.917 183.861 M124.026 190.014 C 125.166 190.624,124.977 191.115,123.338 191.800 C 122.011 192.354,121.784 192.350,120.875 191.755 L 119.874 191.099 120.837 190.358 C 121.930 189.518,122.903 189.413,124.026 190.014 M116.969 196.077 C 118.171 197.793,115.674 199.229,114.241 197.645 C 113.592 196.928,113.611 196.849,114.633 196.045 C 115.978 194.988,116.208 194.991,116.969 196.077 M110.630 202.189 C 111.497 203.513,109.944 206.516,108.922 205.493 C 108.198 204.769,108.120 202.619,108.788 201.814 C 109.494 200.964,109.878 201.042,110.630 202.189 M104.316 212.326 C 104.395 214.552,104.254 215.928,103.870 216.661 L 103.307 217.735 102.704 216.768 C 102.147 215.873,102.337 211.687,103.045 209.267 C 103.515 207.656,104.209 209.326,104.316 212.326 M98.390 230.286 C 98.397 233.308,98.225 234.741,97.727 235.785 L 97.054 237.196 96.329 236.098 C 95.374 234.650,95.352 229.742,96.283 225.884 L 96.966 223.054 97.673 224.627 C 98.196 225.793,98.382 227.259,98.390 230.286 M97.717 256.275 C 97.972 259.647,97.621 260.654,96.417 260.009 C 95.618 259.581,95.720 253.650,96.535 253.126 C 97.296 252.638,97.479 253.124,97.717 256.275 M231.400 326.583 C 223.605 329.817,224.181 339.605,232.317 342.155 C 237.865 343.894,243.991 337.888,242.192 332.472 C 240.344 326.908,236.144 324.615,231.400 326.583 M236.316 327.172 C 238.102 328.102,241.129 331.559,241.603 333.210 C 242.599 336.684,236.683 342.599,233.208 341.602 C 231.496 341.111,227.804 337.782,227.004 336.008 C 225.078 331.738,232.166 325.013,236.316 327.172 " stroke="none" fill="#76c4ec" fill-rule="evenodd"/>
    <path id="path3" d="M245.822 33.890 L 244.645 34.507 245.567 35.253 C 246.755 36.216,248.069 36.202,249.256 35.213 C 249.775 34.781,250.087 34.421,249.949 34.413 C 249.811 34.406,249.091 34.146,248.349 33.836 C 247.171 33.344,246.851 33.351,245.822 33.890 M252.998 40.006 C 252.628 41.174,253.327 41.844,254.412 41.360 C 255.246 40.988,255.246 40.982,254.263 40.059 L 253.276 39.132 252.998 40.006 M258.900 44.480 C 258.127 45.411,258.156 166.728,258.929 167.501 C 260.790 169.362,260.801 169.012,260.790 105.892 C 260.778 42.809,260.761 42.237,258.900 44.480 M163.768 58.858 C 163.311 59.080,162.629 59.781,162.254 60.417 C 161.879 61.052,161.053 61.878,160.420 62.252 C 157.601 63.917,157.663 66.701,160.594 70.074 C 164.355 74.403,166.961 74.719,170.548 71.283 C 174.422 67.571,174.513 64.887,170.881 61.427 C 167.702 58.398,165.990 57.780,163.768 58.858 M346.124 138.929 C 344.276 141.042,344.274 141.057,345.691 141.932 C 346.456 142.405,348.662 143.014,350.944 143.381 C 354.811 144.003,356.400 144.517,356.400 145.145 C 356.400 146.083,359.090 149.332,360.433 150.017 C 362.268 150.953,362.434 151.446,363.594 159.400 C 365.099 169.715,365.570 171.600,366.646 171.600 C 368.947 171.600,368.918 171.245,368.895 199.140 C 368.871 226.800,368.818 227.564,366.849 228.380 C 365.494 228.941,365.037 230.717,363.408 241.769 C 362.401 248.595,361.727 250.400,360.185 250.400 C 359.485 250.400,357.768 252.238,357.045 253.762 C 355.455 257.111,358.013 256.927,309.400 257.201 C 261.681 257.469,264.356 257.306,263.598 260.000 C 263.382 260.770,263.203 263.979,263.202 267.131 L 263.200 272.862 264.389 274.051 C 266.490 276.151,268.127 274.326,269.004 268.906 C 269.478 265.979,269.750 265.265,270.789 264.226 L 272.015 263.000 311.107 262.752 C 357.608 262.456,356.837 262.537,360.538 257.580 C 361.383 256.447,362.941 254.982,363.999 254.324 C 367.371 252.228,369.099 246.371,369.227 236.600 C 369.300 231.063,369.551 230.440,372.089 229.506 C 374.643 228.566,375.343 185.129,372.981 174.136 C 372.336 171.136,372.215 170.912,371.059 170.568 C 369.502 170.104,369.294 169.360,369.227 164.000 C 369.108 154.467,367.386 148.208,364.413 146.502 C 363.553 146.008,362.253 144.862,361.524 143.955 C 357.973 139.535,356.207 138.622,350.543 138.279 C 347.140 138.073,346.832 138.118,346.124 138.929 M252.485 171.480 L 251.571 172.117 252.457 173.061 L 253.344 174.004 254.271 173.133 C 255.815 171.682,254.260 170.242,252.485 171.480 M149.749 177.248 C 147.961 177.436,146.078 177.745,145.564 177.935 L 144.630 178.281 145.597 178.798 C 147.325 179.723,152.726 179.803,199.800 179.600 C 249.801 179.384,249.730 179.388,247.811 177.468 C 247.067 176.724,156.670 176.521,149.749 177.248 M130.600 183.956 C 127.179 184.770,127.625 185.271,131.976 185.501 C 133.958 185.606,135.551 185.465,136.597 185.091 L 138.195 184.521 136.917 183.861 C 135.379 183.065,134.272 183.082,130.600 183.956 M120.837 190.358 L 119.874 191.099 120.875 191.755 C 121.928 192.445,124.800 191.752,124.800 190.809 C 124.800 189.600,122.207 189.305,120.837 190.358 M114.633 196.045 C 113.611 196.849,113.592 196.928,114.241 197.645 C 115.674 199.229,118.171 197.793,116.969 196.077 C 116.208 194.991,115.978 194.988,114.633 196.045 M108.788 201.814 C 108.120 202.619,108.198 204.769,108.922 205.493 C 109.944 206.516,111.497 203.513,110.630 202.189 C 109.878 201.042,109.494 200.964,108.788 201.814 M103.045 209.267 C 102.337 211.687,102.147 215.873,102.704 216.768 L 103.307 217.735 103.870 216.661 C 104.587 215.291,104.453 209.148,103.700 208.899 C 103.425 208.808,103.130 208.973,103.045 209.267 M96.283 225.884 C 95.352 229.742,95.374 234.650,96.329 236.098 L 97.054 237.196 97.727 235.785 C 98.688 233.770,98.654 226.812,97.673 224.627 L 96.966 223.054 96.283 225.884 M96.535 253.126 C 95.720 253.650,95.618 259.581,96.417 260.009 C 97.621 260.654,97.972 259.647,97.717 256.275 C 97.479 253.124,97.296 252.638,96.535 253.126 M264.491 289.848 L 263.200 290.858 263.200 306.655 C 263.200 323.058,263.244 323.525,264.923 324.859 C 265.656 325.441,265.856 325.451,266.636 324.940 C 268.342 323.822,268.417 322.995,268.306 306.451 L 268.200 290.702 266.991 289.770 L 265.782 288.838 264.491 289.848 M232.200 327.353 C 226.041 330.265,225.066 335.260,229.852 339.391 C 233.650 342.670,235.355 342.592,238.974 338.974 C 242.551 335.397,242.658 333.664,239.531 329.982 C 236.604 326.536,235.082 325.991,232.200 327.353 M264.480 339.318 C 262.226 341.643,262.698 347.861,265.231 349.217 C 268.234 350.824,269.877 341.988,267.080 339.277 L 265.759 337.998 264.480 339.318 " stroke="none" fill="#ece5cc" fill-rule="evenodd"/>
    <path id="path4" d="M196.800 10.110 C 196.690 10.224,192.460 10.520,187.400 10.768 C 161.854 12.019,154.754 12.865,152.085 14.977 C 151.013 15.826,149.417 16.560,147.700 16.995 C 141.018 18.687,139.646 19.204,138.520 20.454 C 135.827 23.441,134.816 24.268,133.303 24.722 C 131.919 25.136,131.532 25.523,130.547 27.474 C 129.777 28.998,128.799 30.175,127.570 31.059 C 125.688 32.412,124.801 33.776,124.799 35.319 C 124.797 36.817,122.801 43.744,122.081 44.749 C 120.327 47.198,120.069 47.879,119.649 51.155 C 119.356 53.441,119.200 64.131,119.200 81.989 L 119.200 109.324 120.202 110.638 C 120.771 111.385,122.365 112.523,123.893 113.276 L 126.582 114.600 162.271 114.800 C 200.913 115.017,199.615 114.931,197.966 117.161 L 197.050 118.400 162.179 118.400 C 137.913 118.400,126.654 118.537,125.155 118.850 C 123.641 119.165,112.900 119.278,89.054 119.226 C 54.012 119.151,48.797 119.338,46.684 120.745 C 46.143 121.105,45.272 121.707,44.749 122.081 C 43.720 122.818,36.833 124.788,35.200 124.813 C 33.706 124.836,32.429 125.692,31.041 127.603 C 30.243 128.701,28.940 129.764,27.417 130.559 C 25.434 131.593,24.979 132.031,24.685 133.185 C 24.212 135.044,23.080 136.562,21.383 137.610 C 19.553 138.742,18.984 139.920,17.559 145.535 C 16.908 148.101,16.020 150.650,15.586 151.200 C 13.850 153.398,13.604 153.928,13.005 156.776 C 12.663 158.403,12.016 165.419,11.567 172.367 C 11.119 179.315,10.538 186.437,10.276 188.193 L 9.800 191.386 8.291 191.632 C 6.662 191.897,5.058 193.159,4.162 194.880 C 3.394 196.356,3.442 196.951,4.300 196.596 C 4.685 196.437,6.173 195.997,7.607 195.617 C 13.503 194.057,13.645 193.749,14.074 181.640 C 14.475 170.300,15.135 165.630,16.751 162.703 C 18.418 159.684,19.083 157.310,19.977 151.187 C 20.928 144.676,21.458 143.304,24.000 140.762 C 25.346 139.416,26.225 138.064,26.825 136.420 C 27.663 134.122,27.772 134.007,29.748 133.352 C 31.162 132.883,32.546 131.958,34.200 130.377 C 39.666 125.152,33.383 125.517,122.800 125.237 C 205.918 124.977,199.690 125.174,201.820 122.738 C 206.702 117.154,206.604 114.715,201.400 112.320 L 199.400 111.400 163.600 111.200 C 130.031 111.012,127.717 110.955,126.474 110.276 L 125.148 109.552 125.325 78.276 C 125.546 39.407,125.566 39.234,130.377 34.200 C 131.958 32.546,132.883 31.162,133.352 29.748 C 134.007 27.772,134.122 27.663,136.420 26.825 C 138.064 26.225,139.416 25.346,140.762 24.000 C 143.348 21.414,144.726 20.900,151.600 19.958 C 157.892 19.096,163.307 17.661,164.853 16.444 C 169.240 12.993,231.476 13.097,236.584 16.563 C 238.600 17.932,242.868 19.121,248.811 19.970 C 254.032 20.716,258.000 21.814,258.000 22.513 C 258.000 23.555,261.557 26.067,264.855 27.354 C 266.087 27.835,266.415 28.238,266.997 29.991 C 267.469 31.412,268.424 32.852,270.042 34.581 C 273.790 38.588,274.764 42.536,274.787 53.827 C 274.807 63.179,275.546 66.036,278.524 68.278 C 282.134 70.996,283.644 71.596,287.141 71.702 C 291.627 71.837,291.765 72.799,287.300 72.803 C 284.852 72.805,283.948 72.976,283.000 73.615 C 282.340 74.061,281.244 74.696,280.563 75.028 C 279.883 75.360,278.762 76.214,278.071 76.927 L 276.815 78.223 278.733 81.447 C 280.262 84.018,282.800 89.932,282.800 90.924 C 282.800 91.033,282.228 91.321,281.529 91.565 C 279.397 92.308,276.468 94.395,275.611 95.782 C 274.813 97.073,274.800 97.639,274.800 130.064 C 274.800 170.441,274.596 173.041,271.234 175.515 C 269.934 176.472,268.620 178.307,266.600 181.985 C 265.503 183.981,265.091 184.329,261.821 186.018 C 259.386 187.276,257.715 188.465,256.596 189.738 L 254.949 191.608 249.375 192.206 C 244.803 192.696,236.354 192.805,202.400 192.809 C 152.336 192.815,149.356 192.993,146.027 196.171 C 145.357 196.811,143.475 197.591,140.612 198.417 C 136.250 199.675,133.204 201.297,132.408 202.785 C 132.186 203.200,130.878 204.211,129.502 205.032 C 126.353 206.910,125.310 207.848,124.523 209.506 C 124.179 210.231,122.862 211.866,121.597 213.139 C 118.870 215.883,118.297 216.905,117.207 220.975 C 116.538 223.471,116.093 224.325,114.835 225.524 C 111.730 228.484,111.232 232.663,111.213 255.938 C 111.201 270.830,111.132 272.592,110.514 273.638 L 109.828 274.800 78.614 274.793 C 39.957 274.784,39.320 274.718,34.666 270.246 C 33.476 269.103,31.715 267.842,30.751 267.443 C 28.171 266.376,27.879 266.203,27.591 265.573 C 25.494 260.988,24.033 258.805,22.726 258.304 C 21.813 257.953,20.568 253.737,19.846 248.554 C 19.147 243.531,18.436 241.112,16.792 238.155 C 15.458 235.755,14.955 233.268,14.388 226.256 C 13.757 218.467,12.827 217.251,6.845 216.397 C 3.398 215.906,3.338 215.932,4.190 217.580 C 4.852 218.862,5.993 219.502,8.300 219.887 C 10.611 220.274,11.085 221.648,11.586 229.404 C 12.454 242.861,13.075 246.240,15.103 248.551 C 15.860 249.413,16.534 250.880,16.984 252.647 C 18.468 258.474,19.289 260.800,20.129 261.558 C 20.608 261.991,21.664 262.906,22.476 263.592 C 23.287 264.278,24.165 265.506,24.426 266.320 C 25.050 268.263,25.837 269.117,27.902 270.089 C 28.839 270.530,30.066 271.455,30.630 272.145 C 31.194 272.835,31.875 273.670,32.144 274.000 C 32.412 274.330,34.245 275.026,36.216 275.546 C 42.816 277.288,44.993 278.057,46.000 279.001 C 47.915 280.796,49.625 280.899,80.425 281.081 L 109.450 281.252 111.080 279.670 C 114.473 276.377,114.544 275.919,114.845 255.200 C 115.132 235.429,115.155 235.186,116.903 233.625 C 118.087 232.566,119.041 229.450,119.847 224.000 C 120.229 221.417,121.432 219.272,123.024 218.333 C 123.828 217.859,124.515 217.075,124.668 216.459 C 124.952 215.315,127.342 211.894,129.052 210.184 C 130.226 209.010,132.512 207.581,135.107 206.400 C 136.114 205.941,137.132 205.084,137.589 204.308 C 138.961 201.982,141.006 201.267,149.000 200.318 C 151.190 200.058,169.289 199.785,195.200 199.622 C 239.963 199.340,241.041 199.293,241.487 197.587 C 241.609 197.121,242.235 196.822,243.433 196.658 C 244.404 196.524,248.145 195.852,251.747 195.162 L 258.296 193.909 260.988 191.581 C 262.469 190.301,264.698 188.746,265.940 188.127 C 267.415 187.391,268.409 186.583,268.803 185.800 C 270.181 183.055,271.382 181.495,272.809 180.594 C 274.386 179.599,275.300 177.460,276.394 172.200 C 277.040 169.094,277.955 166.933,279.178 165.623 C 281.201 163.458,281.218 163.144,281.129 129.100 L 281.047 97.400 282.723 94.838 C 283.645 93.429,284.400 92.124,284.400 91.938 C 284.400 91.752,285.750 91.600,287.400 91.600 L 290.400 91.600 290.400 89.780 C 290.400 88.072,289.535 85.653,288.890 85.557 C 288.730 85.534,288.060 85.467,287.400 85.409 C 286.740 85.351,286.110 85.260,286.000 85.206 C 285.890 85.152,285.530 85.132,285.200 85.162 C 284.083 85.262,283.044 78.562,283.856 76.495 L 284.508 74.833 287.341 74.716 C 292.459 74.506,292.412 70.000,287.292 70.000 L 284.567 70.000 283.496 67.817 C 282.073 64.916,281.211 61.037,280.958 56.401 C 280.608 49.976,280.040 47.161,278.807 45.752 C 278.094 44.937,277.413 43.341,276.845 41.152 C 274.590 32.473,274.738 32.829,272.679 31.102 C 271.622 30.215,270.331 28.649,269.810 27.620 C 268.711 25.452,268.242 25.014,266.600 24.628 C 265.867 24.456,264.465 23.357,263.000 21.807 C 260.428 19.087,260.222 18.988,252.969 17.030 C 250.393 16.335,248.977 15.712,248.095 14.888 C 245.892 12.831,242.311 12.366,218.000 10.985 C 202.402 10.099,197.024 9.877,196.800 10.110 M161.200 48.200 C 153.736 49.488,149.091 54.566,148.013 62.619 C 146.062 77.182,155.394 86.264,169.786 83.813 C 182.061 81.722,186.736 72.217,182.757 57.441 C 182.284 55.684,178.431 51.356,175.911 49.752 C 173.183 48.015,166.412 47.300,161.200 48.200 M168.953 51.214 C 174.071 51.800,176.226 53.716,174.128 55.814 C 173.428 56.515,173.250 56.510,168.208 55.630 C 165.754 55.201,162.510 55.506,160.244 56.378 C 158.856 56.912,157.807 56.191,157.477 54.476 C 157.152 52.789,158.460 51.881,161.990 51.343 C 163.645 51.091,165.090 50.867,165.200 50.845 C 165.310 50.824,166.999 50.990,168.953 51.214 M156.140 58.400 C 156.722 58.952,156.790 59.271,156.457 59.893 C 155.434 61.805,155.149 65.984,155.803 69.475 C 156.631 73.894,155.851 75.596,153.424 74.665 C 151.638 73.979,150.545 68.184,151.218 62.962 C 151.414 61.443,151.580 60.014,151.587 59.787 C 151.654 57.673,154.471 56.815,156.140 58.400 M179.163 58.160 C 182.259 61.457,180.812 74.800,177.357 74.800 C 175.376 74.800,175.070 73.715,175.868 69.521 C 176.498 66.209,176.442 65.168,175.333 59.565 C 174.900 57.378,177.524 56.416,179.163 58.160 M168.138 58.202 C 172.418 59.450,175.384 64.035,174.206 67.581 C 171.871 74.611,165.047 76.689,160.227 71.838 C 154.319 65.892,160.136 55.867,168.138 58.202 M163.600 76.059 C 166.109 76.449,167.112 76.420,169.727 75.883 C 173.703 75.066,174.800 75.385,174.800 77.357 C 174.800 80.832,161.468 82.270,158.150 79.153 C 156.407 77.515,157.390 74.877,159.563 75.362 C 160.133 75.490,161.950 75.803,163.600 76.059 M289.708 124.100 C 287.270 126.639,287.252 126.797,287.089 147.000 C 286.925 167.392,287.094 165.996,284.028 172.200 C 283.158 173.960,282.080 176.675,281.632 178.234 C 281.068 180.195,280.347 181.612,279.291 182.834 C 277.149 185.314,274.669 188.802,274.891 189.024 C 274.993 189.126,275.805 188.173,276.695 186.905 C 277.585 185.637,278.712 184.240,279.200 183.800 C 280.302 182.805,281.767 179.961,282.395 177.593 C 282.656 176.607,283.751 174.000,284.826 171.800 C 287.556 166.217,287.676 165.177,287.856 145.600 C 288.022 127.585,288.129 126.495,289.927 124.481 L 291.071 123.200 318.636 123.202 C 344.323 123.204,346.522 123.259,350.927 124.002 C 356.185 124.890,356.645 124.927,355.200 124.349 C 351.759 122.973,348.078 122.815,319.378 122.807 L 290.957 122.800 289.708 124.100 M360.800 125.761 C 365.270 127.130,365.770 127.394,367.122 129.102 C 367.805 129.964,369.465 131.256,370.812 131.974 C 372.264 132.748,373.572 133.792,374.028 134.539 C 374.451 135.233,374.798 135.599,374.799 135.354 C 374.801 134.501,373.114 132.772,371.462 131.937 C 370.548 131.474,368.872 130.142,367.737 128.977 C 365.732 126.917,360.893 124.745,358.479 124.821 C 358.106 124.833,359.150 125.256,360.800 125.761 M374.800 136.853 C 374.800 137.041,375.876 138.287,377.191 139.623 C 379.827 142.301,380.189 143.205,381.977 151.600 C 382.470 153.910,383.299 156.880,383.821 158.200 C 384.940 161.031,385.837 164.787,386.256 168.400 C 386.421 169.830,386.626 170.679,386.710 170.287 C 387.000 168.939,385.528 161.059,384.420 158.031 C 383.810 156.364,382.913 153.380,382.425 151.400 C 379.982 141.470,380.084 141.718,377.330 139.004 C 375.938 137.633,374.800 136.665,374.800 136.853 M386.914 173.000 C 386.917 174.100,386.995 174.503,387.087 173.895 C 387.179 173.286,387.177 172.386,387.082 171.895 C 386.987 171.403,386.911 171.900,386.914 173.000 M387.351 179.600 C 387.351 182.130,387.416 183.165,387.496 181.900 C 387.575 180.635,387.575 178.565,387.496 177.300 C 387.416 176.035,387.351 177.070,387.351 179.600 M387.762 193.000 C 387.762 196.520,387.824 197.906,387.898 196.081 C 387.972 194.256,387.972 191.376,387.897 189.681 C 387.822 187.986,387.761 189.480,387.762 193.000 M273.800 190.400 C 273.399 190.843,273.162 191.295,273.272 191.405 C 273.382 191.515,273.799 191.243,274.200 190.800 C 274.601 190.357,274.838 189.905,274.728 189.795 C 274.618 189.685,274.201 189.957,273.800 190.400 M271.816 191.974 C 271.688 192.180,270.283 193.204,268.692 194.248 C 267.101 195.293,265.102 196.764,264.249 197.519 C 262.212 199.319,260.357 200.104,254.781 201.521 C 252.241 202.167,249.541 203.021,248.781 203.419 C 246.074 204.837,243.925 204.915,200.000 205.183 C 157.755 205.441,156.025 205.481,151.272 206.304 C 146.232 207.176,143.389 207.923,143.747 208.281 C 143.858 208.391,144.815 208.210,145.874 207.878 C 147.976 207.219,152.459 206.605,159.600 205.998 C 162.176 205.779,181.273 205.600,203.000 205.591 C 242.708 205.575,246.359 205.449,249.199 204.000 C 250.087 203.548,253.258 202.474,256.246 201.615 C 261.412 200.130,264.589 198.615,265.049 197.417 C 265.164 197.117,266.410 196.198,267.817 195.375 C 270.669 193.707,273.256 191.641,272.524 191.616 C 272.262 191.607,271.943 191.769,271.816 191.974 M3.605 197.838 C 3.607 198.257,3.875 199.590,4.200 200.800 C 4.977 203.696,4.954 207.670,4.137 211.832 C 3.435 215.404,3.556 216.115,4.698 215.110 C 5.084 214.770,6.344 214.018,7.498 213.440 C 13.732 210.316,13.678 202.675,7.400 199.517 C 6.080 198.853,4.685 198.032,4.300 197.693 C 3.662 197.131,3.600 197.144,3.605 197.838 M388.131 202.600 C 388.133 204.140,388.205 204.721,388.292 203.891 C 388.379 203.061,388.377 201.801,388.289 201.091 C 388.200 200.381,388.129 201.060,388.131 202.600 M387.753 210.200 C 387.753 212.840,387.818 213.868,387.897 212.484 C 387.975 211.101,387.974 208.941,387.895 207.684 C 387.816 206.428,387.752 207.560,387.753 210.200 M140.566 210.181 C 139.667 211.119,137.665 212.553,136.116 213.367 C 133.768 214.601,133.176 215.123,132.550 216.514 C 132.138 217.431,130.803 219.266,129.584 220.591 C 126.315 224.144,124.723 227.427,124.841 230.373 C 124.864 230.938,125.104 230.388,125.376 229.148 C 126.043 226.106,127.280 223.852,129.746 221.189 C 130.881 219.963,132.262 218.080,132.816 217.004 C 133.666 215.352,134.225 214.844,136.411 213.737 C 138.875 212.489,143.784 208.358,142.709 208.438 C 142.429 208.458,141.465 209.243,140.566 210.181 M387.351 221.200 C 387.351 223.730,387.416 224.765,387.496 223.500 C 387.575 222.235,387.575 220.165,387.496 218.900 C 387.416 217.635,387.351 218.670,387.351 221.200 M386.909 228.800 C 386.909 229.790,386.987 230.195,387.082 229.700 C 387.178 229.205,387.178 228.395,387.082 227.900 C 386.987 227.405,386.909 227.810,386.909 228.800 M123.665 236.837 C 122.806 241.444,122.800 241.830,122.801 294.637 C 122.801 349.646,122.834 350.912,124.386 355.400 C 124.871 356.806,124.813 356.246,123.774 349.529 C 122.810 343.300,123.136 242.223,124.138 236.855 C 124.522 234.795,124.768 232.905,124.684 232.655 C 124.600 232.405,124.141 234.287,123.665 236.837 M385.676 236.439 C 385.401 238.042,384.741 240.353,384.209 241.576 C 383.083 244.167,381.480 249.840,381.694 250.482 C 381.775 250.724,382.254 249.410,382.760 247.561 C 383.265 245.713,384.088 243.210,384.588 242.000 C 385.527 239.727,386.599 234.796,386.329 233.986 C 386.244 233.733,385.951 234.837,385.676 236.439 M380.193 256.025 C 379.600 257.982,379.005 258.905,377.128 260.775 C 375.848 262.052,374.800 263.335,374.800 263.626 C 374.800 263.917,375.211 263.625,375.713 262.978 C 376.215 262.330,377.340 261.075,378.213 260.188 C 379.638 258.740,381.631 254.298,381.096 253.762 C 381.004 253.670,380.597 254.688,380.193 256.025 M373.923 266.004 C 373.530 266.691,372.297 267.644,370.880 268.360 C 369.550 269.031,367.897 270.285,367.138 271.199 C 366.135 272.407,365.099 273.088,363.189 273.797 C 361.765 274.326,360.823 274.768,361.096 274.779 C 362.497 274.838,365.938 273.037,367.655 271.345 C 368.701 270.315,370.407 269.006,371.446 268.436 C 373.202 267.473,375.179 265.446,374.766 265.032 C 374.666 264.933,374.287 265.370,373.923 266.004 M354.400 275.635 C 352.530 276.047,348.604 276.570,345.674 276.799 C 339.173 277.305,335.612 278.588,332.500 281.544 C 331.425 282.565,331.008 283.024,331.573 282.564 C 335.155 279.650,340.233 277.605,343.893 277.602 C 346.864 277.600,350.822 276.998,356.000 275.760 C 360.553 274.672,359.240 274.570,354.400 275.635 M262.400 276.805 C 260.750 276.965,246.666 277.119,231.101 277.148 L 202.802 277.200 201.301 278.562 C 200.476 279.311,199.177 280.957,198.416 282.220 L 197.033 284.515 198.299 285.572 C 201.301 288.078,199.957 287.996,238.077 288.014 L 272.754 288.030 274.677 289.315 L 276.600 290.600 276.600 320.600 C 276.600 350.270,276.590 350.644,275.700 354.564 C 274.728 358.846,274.513 361.208,275.423 357.600 C 277.572 349.089,277.600 348.589,277.600 318.759 C 277.600 295.688,277.505 290.766,277.053 290.329 C 273.025 286.435,266.384 284.879,261.200 286.615 C 257.443 287.873,204.148 288.030,201.269 286.792 C 197.294 285.081,197.300 283.961,201.308 279.723 L 203.316 277.600 227.969 277.600 C 254.580 277.600,258.467 277.812,260.552 279.373 C 264.600 282.406,266.401 282.491,270.348 279.835 C 273.126 277.965,276.414 277.595,289.964 277.623 C 302.537 277.649,303.428 277.753,305.285 279.400 C 308.111 281.907,308.510 282.045,306.184 279.711 L 303.769 277.286 285.384 277.091 C 275.273 276.984,266.640 276.810,266.200 276.705 C 265.760 276.600,264.050 276.645,262.400 276.805 M319.531 281.122 C 318.283 281.935,317.113 282.766,316.931 282.969 C 316.622 283.314,317.291 282.947,320.782 280.857 L 322.163 280.029 323.582 281.051 L 325.000 282.072 323.694 280.836 C 322.102 279.330,322.301 279.316,319.531 281.122 M310.300 283.482 C 310.795 283.578,311.605 283.578,312.100 283.482 C 312.595 283.387,312.190 283.309,311.200 283.309 C 310.210 283.309,309.805 283.387,310.300 283.482 M232.000 317.609 C 230.944 317.832,231.140 317.867,232.800 317.750 C 237.901 317.390,243.924 319.393,245.435 321.951 C 245.805 322.578,246.615 323.391,247.235 323.757 C 249.563 325.132,250.423 327.230,250.996 332.931 C 251.147 334.434,251.359 335.575,251.466 335.467 C 252.559 334.374,250.198 325.581,248.446 324.215 C 247.871 323.767,246.592 322.527,245.604 321.461 C 242.512 318.121,236.986 316.557,232.000 317.609 M226.478 318.606 C 225.051 319.225,219.655 324.402,218.832 325.941 C 215.943 331.338,217.339 341.788,221.458 345.602 C 222.526 346.591,223.767 347.871,224.215 348.446 C 225.435 350.012,227.190 350.745,230.248 350.967 L 233.000 351.166 230.424 350.766 C 227.021 350.237,225.314 349.378,224.045 347.556 C 223.470 346.731,222.565 345.818,222.033 345.528 C 218.861 343.796,217.121 337.158,218.162 330.756 C 218.874 326.373,219.290 325.612,222.862 322.161 C 225.536 319.577,226.716 318.875,229.400 318.272 C 229.925 318.155,229.787 318.082,229.000 318.062 C 228.340 318.045,227.205 318.290,226.478 318.606 M229.477 324.593 C 225.469 325.210,225.228 325.486,224.511 330.264 C 223.404 337.645,224.674 342.709,227.892 343.745 C 240.803 347.901,247.901 340.805,243.746 327.896 C 242.664 324.535,237.543 323.349,229.477 324.593 M237.858 326.828 C 241.275 328.482,243.508 333.441,242.202 336.472 C 239.494 342.757,232.998 344.382,228.384 339.929 C 221.757 333.535,229.525 322.794,237.858 326.828 M250.625 338.500 C 250.288 341.534,249.901 342.169,246.035 346.035 C 242.018 350.052,241.644 350.253,237.102 350.837 C 234.958 351.112,233.287 351.421,233.389 351.522 C 233.770 351.903,241.441 350.652,242.400 350.052 C 243.701 349.239,249.239 343.698,250.074 342.375 C 250.670 341.430,251.542 336.000,251.098 336.000 C 250.991 336.000,250.778 337.125,250.625 338.500 M124.832 358.479 C 124.720 360.884,126.933 365.797,129.039 367.820 C 130.225 368.960,131.460 370.526,131.783 371.299 C 132.368 372.698,134.473 374.800,135.290 374.800 C 135.525 374.800,135.107 374.388,134.359 373.885 C 133.612 373.381,132.613 372.166,132.141 371.185 C 131.668 370.203,130.364 368.528,129.242 367.462 C 127.437 365.747,127.083 365.127,126.162 362.062 C 125.589 360.158,125.063 358.420,124.992 358.200 C 124.921 357.980,124.849 358.106,124.832 358.479 M273.836 363.051 C 273.320 364.689,272.616 365.791,271.220 367.146 C 270.170 368.166,268.829 369.951,268.241 371.114 C 267.612 372.358,266.643 373.552,265.886 374.013 C 265.179 374.444,264.801 374.798,265.046 374.799 C 265.900 374.801,267.628 373.113,268.461 371.462 C 268.922 370.548,270.237 368.809,271.385 367.597 C 273.252 365.626,275.295 361.562,274.712 360.979 C 274.619 360.886,274.225 361.818,273.836 363.051 M137.464 375.700 C 138.135 376.195,139.158 377.163,139.737 377.852 C 140.851 379.176,142.613 380.170,144.600 380.595 C 145.260 380.736,144.798 380.424,143.573 379.900 C 142.189 379.309,140.589 378.163,139.346 376.874 C 138.247 375.733,137.099 374.800,136.796 374.800 C 136.493 374.800,136.793 375.205,137.464 375.700 M260.818 377.117 C 258.958 379.001,258.069 379.574,256.062 380.181 C 254.705 380.592,253.670 381.004,253.762 381.096 C 254.442 381.775,258.799 379.576,261.275 377.304 C 262.776 375.927,263.802 374.800,263.555 374.800 C 263.309 374.800,262.077 375.843,260.818 377.117 M149.800 381.949 C 151.340 382.370,154.549 383.360,156.932 384.149 C 161.139 385.543,167.170 386.829,169.200 386.766 C 169.750 386.749,168.297 386.400,165.971 385.990 C 163.644 385.580,160.944 384.947,159.971 384.584 C 156.644 383.341,150.602 381.620,148.800 381.401 C 147.369 381.228,147.574 381.340,149.800 381.949 M247.000 382.404 C 244.580 383.039,242.150 383.818,241.600 384.135 C 240.563 384.734,236.364 385.720,232.200 386.344 C 230.880 386.542,230.250 386.724,230.800 386.750 C 232.920 386.849,239.193 385.565,243.401 384.171 C 245.820 383.370,249.060 382.383,250.600 381.979 C 252.140 381.575,252.950 381.245,252.400 381.247 C 251.850 381.249,249.420 381.770,247.000 382.404 M171.705 387.087 C 172.314 387.179,173.214 387.177,173.705 387.082 C 174.197 386.987,173.700 386.911,172.600 386.914 C 171.500 386.917,171.097 386.995,171.705 387.087 M226.500 387.087 C 227.105 387.178,228.095 387.178,228.700 387.087 C 229.305 386.995,228.810 386.920,227.600 386.920 C 226.390 386.920,225.895 386.995,226.500 387.087 M177.100 387.495 C 178.255 387.576,180.145 387.576,181.300 387.495 C 182.455 387.414,181.510 387.348,179.200 387.348 C 176.890 387.348,175.945 387.414,177.100 387.495 M218.700 387.495 C 219.855 387.576,221.745 387.576,222.900 387.495 C 224.055 387.414,223.110 387.348,220.800 387.348 C 218.490 387.348,217.545 387.414,218.700 387.495 M187.916 387.897 C 189.299 387.975,191.459 387.974,192.716 387.895 C 193.972 387.816,192.840 387.752,190.200 387.753 C 187.560 387.753,186.532 387.818,187.916 387.897 M207.916 387.897 C 209.299 387.975,211.459 387.974,212.716 387.895 C 213.972 387.816,212.840 387.752,210.200 387.753 C 207.560 387.753,206.532 387.818,207.916 387.897 M197.717 388.297 C 199.211 388.374,201.551 388.374,202.917 388.296 C 204.282 388.218,203.060 388.155,200.200 388.155 C 197.340 388.156,196.222 388.220,197.717 388.297 " stroke="none" fill="#3c647c" fill-rule="evenodd"/>
  </g>
  <path d="M 950.004 1643.69 L 950.004 1674.796 L 698.739 1674.796 L 698.739 1643.69 L 950.004 1643.69 Z M 996.257 1348.401 L 996.257 1308.533 L 1299.477 1410.174 L 1299.477 1446.976 L 996.257 1548.62 L 996.257 1508.751 L 1239.966 1428.575 L 996.257 1348.401 Z" style="fill: rgb(51, 51, 51); white-space: pre;"/>
</svg>